<?xml version="1.0" encoding="UTF-8"?>
<svg width="18px" height="18px" viewBox="0 0 18 18" version="1.1" xmlns="http://www.w3.org/2000/svg" xmlns:xlink="http://www.w3.org/1999/xlink">
    <title>热度有色</title>
    <defs>
        <linearGradient x1="50%" y1="1.07660894%" x2="50%" y2="100%" id="linearGradient-1">
            <stop stop-color="#FBDF4C" offset="0%"></stop>
            <stop stop-color="#FD8A2E" offset="100%"></stop>
        </linearGradient>
    </defs>
    <g id="门户引导" stroke="none" stroke-width="1" fill="none" fill-rule="evenodd">
        <g id="超新星详情页3" transform="translate(-537.000000, -1495.000000)" fill-rule="nonzero">
            <g id="热度有色" transform="translate(537.000000, 1495.000000)">
                <rect id="矩形" fill="#000000" opacity="0" x="0" y="0" width="18" height="18"></rect>
                <path d="M6.53571427,6.21428572 C6.53571427,5.35714287 5.35714286,5.14285714 5.14285714,5.89285715 C4.39285713,7.82142858 3.85714286,9.53571428 3.85714286,10.5 C3.85714286,13.5 6.21428572,15.8571429 9.21428571,15.8571429 C12.2142857,15.8571429 14.5714286,13.5 14.5714286,10.5 C14.5714286,9.53571428 13.9285714,7.60714285 13.1785714,5.46428571 C12.1071428,2.78571429 11.5714286,1.39285715 10.9285714,1.28571429 C10.7142857,1.28571429 10.5,1.28571429 10.2857143,1.39285715 C9.75000001,1.71428572 9.75000001,3.21428571 9.74999998,6.10714286 C9.74999998,6.96428571 8.99999997,7.71428571 8.14285713,7.71428571 C7.28571428,7.71428571 6.53571427,7.07142857 6.53571427,6.21428572 Z" id="路径" fill="url(#linearGradient-1)"></path>
            </g>
        </g>
    </g>
</svg>